HIERARCHY
ROOT Hips
{
	OFFSET 0 0 0
	CHANNELS 6 Xposition Yposition Zposition Xrotation Yrotation Zrotation
	JOINT LeftHandThumb1
	{
		OFFSET 1.78 -1.1 1.54
		CHANNELS 3 Xrotation Yrotation Zrotation
		JOINT LeftHandThumb2
		{
			OFFSET 3.18423 0 0
			CHANNELS 3 Xrotation Yrotation Zrotation
			JOINT LeftHandThumb3
			{
				OFFSET 3.62493 0 0
				CHANNELS 3 Xrotation Yrotation Zrotation
				JOINT LeftHandThumb4
				{
					OFFSET 2.65828 0 0
					CHANNELS 3 Xrotation Yrotation Zrotation
					End Site
					{
						OFFSET -0 0 0
					}
				}
			}
		}
	}
	JOINT LeftHandIndex1
	{
		OFFSET 7.4475 0.841835 3.96155
		CHANNELS 3 Xrotation Yrotation Zrotation
		JOINT LeftHandIndex2
		{
			OFFSET 4.09997 0 0
			CHANNELS 3 Xrotation Yrotation Zrotation
			JOINT LeftHandIndex3
			{
				OFFSET 1.88792 0 0
				CHANNELS 3 Xrotation Yrotation Zrotation
				JOINT LeftHandIndex4
				{
					OFFSET 1.76905 0 0
					CHANNELS 3 Xrotation Yrotation Zrotation
					End Site
					{
						OFFSET -0 0 0
					}
				}
			}
		}
	}
	JOINT LeftHandMiddle1
	{
		OFFSET 8.15202 0.976627 0.886065
		CHANNELS 3 Xrotation Yrotation Zrotation
		JOINT LeftHandMiddle2
		{
			OFFSET 4.6 0 0
			CHANNELS 3 Xrotation Yrotation Zrotation
			JOINT LeftHandMiddle3
			{
				OFFSET 2.00908 0 0
				CHANNELS 3 Xrotation Yrotation Zrotation
				JOINT LeftHandMiddle4
				{
					OFFSET 1.47333 0 0
					CHANNELS 3 Xrotation Yrotation Zrotation
					End Site
					{
						OFFSET -0 0 0
					}
				}
			}
		}
	}
	JOINT LeftHandRing1
	{
		OFFSET 7.18367 0.497501 -1.72915
		CHANNELS 3 Xrotation Yrotation Zrotation
		JOINT LeftHandRing2
		{
			OFFSET 4.36337 0 0
			CHANNELS 3 Xrotation Yrotation Zrotation
			JOINT LeftHandRing3
			{
				OFFSET 2.36208 0 0
				CHANNELS 3 Xrotation Yrotation Zrotation
				JOINT LeftHandRing4
				{
					OFFSET 1.73219 0 0
					CHANNELS 3 Xrotation Yrotation Zrotation
					End Site
					{
						OFFSET -0 0 0
					}
				}
			}
		}
	}
	JOINT LeftHandPinky1
	{
		OFFSET 7.41209 -0.417872 -3.72321
		CHANNELS 3 Xrotation Yrotation Zrotation
		JOINT LeftHandPinky2
		{
			OFFSET 2.81501 0 0
			CHANNELS 3 Xrotation Yrotation Zrotation
			JOINT LeftHandPinky3
			{
				OFFSET 2.01927 0 0
				CHANNELS 3 Xrotation Yrotation Zrotation
				JOINT LeftHandPinky4
				{
					OFFSET 1.19603 0 0
					CHANNELS 3 Xrotation Yrotation Zrotation
					End Site
					{
						OFFSET -0 0 0
					}
				}
			}
		}
	}
}
MOTION
Frames: 11
Frame Time: 0.00833333
26.57425842 25.36673126 17.67104187 -17.65269994 -85.95414914 -35.02349389 -16.8576849 -25.96610383 -32.17941737 0.00000047 39.90000315 -0.00000128 0.00000001 5.83703244 -0.00000016 -0 0 0 -8.27945791 -13.38150162 -0.06596072 -0 0 0.73453287 -0 0 16.67712426 -0 0 0 0.76164118 -2.78633193 -7.27466086 -0 0 -42.17668106 -0 0 -18.00375254 -0 0 0 -9.07157128 -1.56183227 -34.89593518 -0 0 -55.69021445 -0 0 -21.12615782 -0 0 0 -7.68213012 1.8198437 -35.14825075 -0 0 -42.17903145 -0 0 -14.37583905 -0 0 0
26.56716309 25.34178772 17.65435944 -18.47063803 -86.108458 -35.55522659 -16.68665197 -26.03110543 -32.00826982 0.0000005 41.17142369 -0.00000134 0.00000001 5.84075895 -0.00000016 0 0 0 -8.1990437 -13.47613186 -0.10458008 -0 0 0.78908946 -0 0 16.38515756 -0 0 0 0.84367971 -2.48332571 -7.07933024 -0 0 -38.64426546 -0 0 -16.19327968 -0 0 0 -9.18914274 -1.53338228 -34.92328778 -0 0 -55.66387764 -0 0 -21.10580925 -0 0 0 -7.8108118 1.76154073 -35.16220038 -0 0 -42.38000163 -0 0 -14.39561989 -0 0 0
26.55122375 25.35777893 17.64234772 -19.06380958 -86.27606683 -36.06380874 -16.45471344 -26.1322382 -31.71733806 0.00000055 42.49102914 -0.00000141 0.00000001 5.83403244 -0.00000016 -0 0 0 -8.17656981 -13.65882134 0.0119315 -0 0 0.8700684 -0 0 16.15491733 -0 0 0 0.7852005 -2.1745138 -6.82687714 -0 0 -34.84232933 -0 0 -14.38547405 -0 0 0 -9.34672866 -1.53835599 -34.92921925 -0 0 -55.64600107 -0 0 -21.10893425 -0 0 0 -7.97810091 1.66959179 -35.112295 -0 0 -42.49454198 -0 0 -14.5674734 -0 0 0
26.54384766 25.36476135 17.62832642 -20.26075076 -86.4483811 -37.24908594 -16.15812747 -26.26228533 -31.35667704 0.00000059 43.81516742 -0.00000147 0.00000001 5.82177995 -0.00000016 -0 0 0 -8.10210425 -13.82340718 0.18458066 -0 0 0.96696411 -0 0 15.98336444 -0 0 0 0.68298061 -1.92410201 -6.59264071 -0 0 -31.08479888 -0 0 -12.73081613 -0 0 0 -9.54875582 -1.50604766 -35.02898862 -0 0 -55.70391753 -0 0 -21.17348424 -0 0 0 -8.18037266 1.62114892 -35.15052494 -0 0 -42.82618339 -0 0 -14.69740879 -0 0 0
26.53009644 25.37689972 17.61726074 -22.086499 -86.54574374 -39.05954791 -15.76784956 -26.43730591 -30.98258103 0.00000064 45.13541451 -0.00000154 0.00000001 5.81543128 -0.00000016 -0 0 -0 -7.9795385 -13.93942144 0.33533268 -0 0 1.06065902 -0 0 15.84411224 -0 0 0 0.5837983 -1.67188265 -6.42213019 -0 0 -27.92966787 -0 0 -11.53723298 -0 0 0 -9.78309156 -1.52443187 -35.30807958 -0 0 -55.89498273 -0 0 -21.30683783 -0 0 0 -8.40663342 1.53893142 -35.32813742 -0 0 -43.23952304 -0 0 -14.8367096 -0 0 0
26.51323547 25.39128571 17.60773621 -24.53946311 -86.59896033 -41.54813796 -15.25203682 -26.67147253 -30.62063342 0.0000007 46.67433462 -0.00000163 0.00000001 5.8926648 -0.00000016 -0 0 0 -7.87984495 -14.00662349 0.49221248 -0 0 1.06965849 -0 0 15.85310927 -0 0 0 0.48067407 -1.48892507 -6.25955002 -0 0 -25.72624704 -0 0 -10.82552103 -0 0 0 -10.01494783 -1.54759099 -35.57419805 -0 0 -56.10340233 -0 0 -21.36906001 -0 0 0 -8.62334441 1.46744126 -35.48507362 -0 0 -43.58273553 -0 0 -14.94558502 -0 0 0
26.49380493 25.39731903 17.5973587 -25.29255113 -86.64448698 -42.3147899 -14.70193184 -26.91345114 -30.28840327 0.00000077 48.28829418 -0.00000172 0.00000001 6.00583435 -0.00000016 0 0 -0 -7.91722878 -14.14563385 0.48053623 -0 0 1.22527657 -0 0 16.00872777 -0 0 0 0.33432443 -1.43310291 -6.13994084 -0 0 -23.88420749 -0 0 -10.24911548 -0 0 0 -10.31864437 -1.60809761 -35.81356186 -0 0 -56.26098144 -0 0 -21.40735006 -0 0 0 -8.91448514 1.35921403 -35.65883135 -0 0 -43.91139809 -0 0 -14.96454192 -0 0 0
26.46770935 25.4056488 17.58930206 -26.149273 -86.63617373 -43.16312791 -14.15759208 -27.14953887 -29.99887846 0.00000085 49.86451376 -0.00000182 0.00000001 6.10267353 -0.00000016 0 0 -0 -7.89779085 -14.34162113 0.45395868 -0 0 1.40256028 -0 0 16.18601151 -0 0 0 0.2479369 -1.38592019 -6.01398078 -0 0 -22.18065988 -0 0 -9.4482103 -0 0 0 -10.49824828 -1.6843845 -35.99977726 -0 0 -56.36250508 -0 0 -21.42080249 -0 0 0 -9.09832276 1.23239777 -35.79076165 -0 0 -44.14203236 -0 0 -15.00696961 -0 0 0
26.45595093 25.40281525 17.57374268 -26.8252358 -86.72298608 -43.78193178 -13.71247269 -27.33059533 -29.788755 0.00000092 51.22261668 -0.00000191 0.00000001 6.18673239 -0.00000017 -0 0 0 -7.86882271 -14.46087347 0.38859732 -0 0 1.58607478 -0 0 16.36952776 -0 0 0 0.14310755 -1.26220974 -5.929289 -0 0 -20.39714675 -0 0 -8.59844339 -0 0 0 -10.64810555 -1.69799226 -36.16589473 -0 0 -56.41500966 -0 0 -21.42192947 -0 0 0 -9.26010137 1.16794761 -35.88968893 -0 0 -44.37364735 -0 0 -15.02714313 -0 0 0
26.44224243 25.39687347 17.55910645 -27.92206683 -86.8458854 -44.82634858 -13.36792433 -27.45610776 -29.66553618 0.00000097 52.2879666 -0.00000199 0.00000001 6.24437625 -0.00000017 -0 0 0 -7.79691474 -14.50828553 0.3045888 -0 0 1.74996416 -0 0 16.53341716 -0 0 0 0.09921924 -1.09125707 -5.85451092 -0 0 -18.51936667 -0 0 -7.70270384 -0 0 0 -10.73048424 -1.67643294 -36.27267795 -0 0 -56.43268142 -0 0 -21.41497165 -0 0 0 -9.3557263 1.13484443 -35.92073019 -0 0 -44.48072798 -0 0 -15.10327525 -0 0 0
26.43062134 25.37621613 17.54919891 -27.96409882 -87.04271884 -44.63121615 -13.16394837 -27.50640642 -29.68937077 0.00000102 53.13134556 -0.00000205 0.00000001 6.38636603 -0.00000017 -0 0 0 -7.84776062 -14.497125 0.03242682 -0 0 1.8790996 -0 0 16.66255378 -0 0 0 -0.01450274 -0.89788534 -5.94957631 -0 0 -16.53677934 -0 0 -6.75461112 -0 0 0 -10.79444805 -1.64172928 -36.47494378 -0 0 -56.42294255 -0 0 -21.40061293 -0 0 0 -9.5080938 1.16742586 -36.07542538 -0 0 -44.5878468 -0 0 -15.11000457 -0 0 0
